<?xml version="1.0" standalone="no"?>
<!DOCTYPE svg PUBLIC "-//W3C//DTD SVG 20010904//EN"
 "http://www.w3.org/TR/2001/REC-SVG-20010904/DTD/svg10.dtd">
<svg version="1.0" xmlns="http://www.w3.org/2000/svg"
 width="30.000000pt" height="30.000000pt" viewBox="0 0 30.000000 30.000000"
 preserveAspectRatio="xMidYMid meet">
<metadata>
Created by potrace 1.10, written by Peter Selinger 2001-2011
</metadata>
<g transform="translate(0.000000,30.000000) scale(0.100000,-0.100000)"
fill="#000000" stroke="none">
<path d="M118 202 c7 -5 12 -13 11 -18 -5 -27 2 -34 28 -28 34 9 42 9 71 0 15
-5 22 -3 22 6 0 8 -15 19 -32 25 -45 15 -116 26 -100 15z"/>
<path d="M50 173 c0 -14 2 -15 9 -5 7 11 10 10 15 -3 9 -24 8 -27 -6 -19 -6 4
-8 3 -5 -3 4 -6 18 -13 32 -15 15 -3 22 -1 18 5 -4 6 0 8 10 4 14 -5 14 -3 -1
24 -20 34 -72 43 -72 12z"/>
<path d="M150 119 c0 -6 -16 -9 -42 -7 -27 2 -43 -1 -46 -10 -4 -13 8 -13 146
4 43 5 57 19 22 21 -11 1 -20 -2 -20 -7 0 -6 -11 -5 -26 0 -32 12 -34 12 -34
-1z"/>
</g>
</svg>
